P3
# Created by Paint Shop Pro 7
30 108
255
241 241 241 224 224 224 187 187 187 151 151 151 142 142 142 153 153 153 
153 153 153 155 155 155 155 155 155 156 156 156 157 157 157 158 158 158 
159 159 159 160 160 160 160 160 160 161 161 161 161 161 161 162 162 162 
163 163 163 163 163 163 164 164 164 165 165 165 165 165 165 166 166 166 
165 165 165 167 167 167 171 171 171 174 174 174 175 175 175 205 205 205 
233 233 233 205 205 205 145 145 145 87 87 87 73 73 73 90 90 90 91 91 91 
93 93 93 94 94 94 96 96 96 97 97 97 98 98 98 99 99 99 101 101 101 102 102 102 
103 103 103 104 104 104 105 105 105 106 106 106 107 107 107 108 108 108 
109 109 109 109 109 109 110 110 110 110 110 110 112 112 112 119 119 119 
125 125 125 126 126 126 174 174 174 233 233 233 205 205 205 145 145 145 
87 87 87 73 73 73 90 90 90 91 91 91 93 93 93 94 94 94 96 96 96 97 97 97 
98 98 98 99 99 99 101 101 101 102 102 102 103 103 103 104 104 104 105 105 105 
106 106 106 107 107 107 108 108 108 109 109 109 109 109 109 110 110 110 
109 109 109 112 112 112 118 118 118 125 125 125 126 126 126 174 174 174 
233 233 233 204 204 204 145 145 145 86 86 86 72 72 72 89 89 89 91 91 91 
92 92 92 94 94 94 95 95 95 96 96 96 97 97 97 99 99 99 100 100 100 101 101 101 
102 102 102 103 103 103 104 104 104 105 105 105 106 106 106 107 107 107 
108 108 108 109 109 109 109 109 109 109 109 109 111 111 111 118 118 118 
124 124 124 125 125 125 173 173 173 233 233 233 205 205 205 145 145 145 
86 86 86 72 72 72 89 89 89 90 90 90 92 92 92 93 93 93 95 95 95 96 96 96 
98 98 98 99 99 99 100 100 100 101 101 101 102 102 102 103 103 103 104 104 104 
105 105 105 106 106 106 107 107 107 108 108 108 109 109 109 110 110 110 
109 109 109 112 112 112 118 118 118 124 124 124 125 125 125 173 173 173 
234 234 234 206 206 206 145 145 145 85 85 85 71 71 71 88 88 88 90 90 90 
91 91 91 93 93 93 94 94 94 96 96 96 98 98 98 99 99 99 99 99 99 100 100 100 
101 101 101 102 102 102 103 103 103 104 104 104 105 105 105 106 106 106 
107 107 107 109 109 109 110 110 110 110 110 110 112 112 112 118 118 118 
123 123 123 124 124 124 173 173 173 235 235 235 207 207 207 146 146 146 
86 86 86 72 72 72 89 89 89 90 90 90 92 92 92 93 93 93 95 95 95 96 96 96 
98 98 98 99 99 99 100 100 100 101 101 101 102 102 102 103 103 103 104 104 104 
105 105 105 106 106 106 107 107 107 108 108 108 109 109 109 110 110 110 
109 109 109 112 112 112 117 117 117 123 123 123 124 124 124 173 173 173 
235 235 235 207 207 207 146 146 146 86 86 86 71 71 71 89 89 89 90 90 90 
92 92 92 93 93 93 95 95 95 96 96 96 97 97 97 98 98 98 100 100 100 101 101 101 
102 102 102 102 102 102 104 104 104 105 105 105 106 106 106 107 107 107 
108 108 108 108 108 108 109 109 109 109 109 109 111 111 111 117 117 117 
123 123 123 124 124 124 173 173 173 235 235 235 207 207 207 146 146 146 
86 86 86 72 72 72 89 89 89 90 90 90 92 92 92 93 93 93 95 95 95 96 96 96 
97 97 97 98 98 98 100 100 100 101 101 101 102 102 102 103 103 103 104 104 104 
105 105 105 106 106 106 107 107 107 108 108 108 108 108 108 109 109 109 
108 108 108 111 111 111 117 117 117 123 123 123 124 124 124 173 173 173 
236 236 236 207 207 207 137 137 137 72 72 72 63 63 63 89 89 89 92 92 92 
92 92 92 93 93 93 94 94 94 95 95 95 96 96 96 98 98 98 100 100 100 101 101 101 
102 102 102 103 103 103 104 104 104 104 104 104 105 105 105 106 106 106 
107 107 107 108 108 108 108 108 108 108 108 108 110 110 110 117 117 117 
122 122 122 123 123 123 172 172 172 235 235 235 208 208 208 146 146 146 
86 86 86 71 71 71 89 89 89 90 90 90 92 92 92 93 93 93 94 94 94 95 95 95 
97 97 97 98 98 98 100 100 100 101 101 101 102 102 102 103 103 103 104 104 104 
104 104 104 105 105 105 105 105 105 107 107 107 108 108 108 109 109 109 
108 108 108 111 111 111 116 116 116 122 122 122 122 122 122 172 172 172 
231 231 231 208 208 208 179 179 179 138 138 138 104 104 104 88 88 88 83 83 83 
91 91 91 92 92 92 93 93 93 95 95 95 97 97 97 98 98 98 99 99 99 100 100 100 
101 101 101 102 102 102 103 103 103 104 104 104 104 104 104 105 105 105 
106 106 106 107 107 107 109 109 109 109 109 109 111 111 111 116 116 116 
121 121 121 122 122 122 172 172 172 227 227 227 208 208 208 214 214 214 
195 195 195 139 139 139 88 88 88 75 75 75 91 91 91 92 92 92 94 94 94 95 95 95 
97 97 97 98 98 98 99 99 99 100 100 100 101 101 101 102 102 102 103 103 103 
104 104 104 105 105 105 106 106 106 107 107 107 108 108 108 109 109 109 
109 109 109 111 111 111 116 116 116 121 121 121 122 122 122 172 172 172 
225 225 225 208 208 208 227 227 227 215 215 215 152 152 152 87 87 87 73 73 73 
90 90 90 92 92 92 94 94 94 95 95 95 96 96 96 97 97 97 98 98 98 99 99 99 
100 100 100 101 101 101 102 102 102 103 103 103 105 105 105 106 106 106 
107 107 107 108 108 108 109 109 109 108 108 108 110 110 110 115 115 115 
121 121 121 122 122 122 171 171 171 226 226 226 209 209 209 224 224 224 
209 209 209 148 148 148 88 88 88 74 74 74 91 91 91 92 92 92 94 94 94 95 95 95 
96 96 96 97 97 97 99 99 99 100 100 100 101 101 101 102 102 102 103 103 103 
104 104 104 105 105 105 106 106 106 107 107 107 108 108 108 109 109 109 
108 108 108 110 110 110 115 115 115 121 121 121 121 121 121 171 171 171 
226 226 226 209 209 209 225 225 225 210 210 210 149 149 149 88 88 88 73 73 73 
91 91 91 92 92 92 93 93 93 94 94 94 95 95 95 97 97 97 99 99 99 100 100 100 
101 101 101 101 101 101 103 103 103 104 104 104 105 105 105 105 105 105 
106 106 106 107 107 107 108 108 108 108 108 108 109 109 109 115 115 115 
120 120 120 121 121 121 171 171 171 227 227 227 209 209 209 224 224 224 
209 209 209 148 148 148 88 88 88 74 74 74 91 91 91 92 92 92 93 93 93 94 94 94 
96 96 96 97 97 97 99 99 99 100 100 100 101 101 101 102 102 102 103 103 103 
104 104 104 105 105 105 105 105 105 106 106 106 106 106 106 108 108 108 
108 108 108 110 110 110 115 115 115 120 120 120 121 121 121 171 171 171 
227 227 227 209 209 209 226 226 226 209 209 209 140 140 140 74 74 74 65 65 65 
90 90 90 93 93 93 92 92 92 94 94 94 96 96 96 97 97 97 98 98 98 99 99 99 
101 101 101 102 102 102 103 103 103 103 103 103 104 104 104 105 105 105 
105 105 105 106 106 106 107 107 107 108 108 108 110 110 110 115 115 115 
120 120 120 121 121 121 171 171 171 227 227 227 210 210 210 225 225 225 
210 210 210 148 148 148 88 88 88 73 73 73 90 90 90 91 91 91 93 93 93 94 94 94 
96 96 96 97 97 97 98 98 98 99 99 99 101 101 101 102 102 102 103 103 103 
103 103 103 104 104 104 104 104 104 106 106 106 107 107 107 108 108 108 
108 108 108 110 110 110 115 115 115 120 120 120 120 120 120 171 171 171 
227 227 227 210 210 210 219 219 219 210 210 210 181 181 181 140 140 140 
105 105 105 89 89 89 84 84 84 93 93 93 94 94 94 96 96 96 97 97 97 97 97 97 
99 99 99 100 100 100 101 101 101 102 102 102 103 103 103 103 103 103 104 104 104 
106 106 106 107 107 107 108 108 108 107 107 107 109 109 109 114 114 114 
119 119 119 120 120 120 170 170 170 228 228 228 211 211 211 212 212 212 
210 210 210 216 216 216 196 196 196 140 140 140 90 90 90 77 77 77 93 93 93 
94 94 94 96 96 96 97 97 97 98 98 98 99 99 99 100 100 100 101 101 101 102 102 102 
103 103 103 104 104 104 105 105 105 106 106 106 107 107 107 108 108 108 
107 107 107 109 109 109 114 114 114 119 119 119 119 119 119 170 170 170 
228 228 228 211 211 211 210 210 210 210 210 210 229 229 229 216 216 216 
153 153 153 90 90 90 75 75 75 93 93 93 94 94 94 95 95 95 96 96 96 98 98 98 
99 99 99 99 99 99 100 100 100 101 101 101 102 102 102 104 104 104 105 105 105 
106 106 106 106 106 106 107 107 107 107 107 107 108 108 108 113 113 113 
118 118 118 119 119 119 170 170 170 227 227 227 211 211 211 211 211 211 
211 211 211 225 225 225 210 210 210 149 149 149 90 90 90 76 76 76 93 93 93 
94 94 94 95 95 95 96 96 96 98 98 98 99 99 99 100 100 100 101 101 101 102 102 102 
103 103 103 104 104 104 105 105 105 106 106 106 106 106 106 107 107 107 
107 107 107 109 109 109 113 113 113 118 118 118 119 119 119 170 170 170 
228 228 228 211 211 211 211 211 211 211 211 211 226 226 226 212 212 212 
151 151 151 90 90 90 75 75 75 92 92 92 93 93 93 94 94 94 96 96 96 97 97 97 
98 98 98 100 100 100 101 101 101 102 102 102 103 103 103 104 104 104 104 104 104 
105 105 105 106 106 106 106 106 106 107 107 107 109 109 109 113 113 113 
118 118 118 119 119 119 169 169 169 228 228 228 212 212 212 211 211 211 
211 211 211 226 226 226 211 211 211 150 150 150 90 90 90 75 75 75 92 92 92 
93 93 93 95 95 95 96 96 96 97 97 97 98 98 98 100 100 100 101 101 101 102 102 102 
103 103 103 104 104 104 104 104 104 105 105 105 105 105 105 107 107 107 
107 107 107 109 109 109 113 113 113 118 118 118 118 118 118 169 169 169 
228 228 228 212 212 212 211 211 211 211 211 211 228 228 228 211 211 211 
141 141 141 76 76 76 66 66 66 91 91 91 95 95 95 95 95 95 96 96 96 96 96 96 
98 98 98 100 100 100 101 101 101 102 102 102 102 102 102 103 103 103 104 104 104 
104 104 104 106 106 106 107 107 107 106 106 106 108 108 108 113 113 113 
117 117 117 118 118 118 169 169 169 228 228 228 212 212 212 212 212 212 
212 212 212 226 226 226 211 211 211 149 149 149 89 89 89 74 74 74 92 92 92 
93 93 93 95 95 95 96 96 96 97 97 97 98 98 98 100 100 100 101 101 101 102 102 102 
102 102 102 103 103 103 103 103 103 105 105 105 106 106 106 107 107 107 
106 106 106 108 108 108 112 112 112 117 117 117 117 117 117 169 169 169 
228 228 228 212 212 212 212 212 212 212 212 212 220 220 220 211 211 211 
182 182 182 141 141 141 107 107 107 92 92 92 86 86 86 94 94 94 95 95 95 
97 97 97 98 98 98 99 99 99 100 100 100 101 101 101 102 102 102 102 102 102 
104 104 104 105 105 105 105 105 105 106 106 106 106 106 106 107 107 107 
112 112 112 116 116 116 117 117 117 169 169 169 229 229 229 213 213 213 
212 212 212 212 212 212 213 213 213 212 212 212 217 217 217 197 197 197 
142 142 142 92 92 92 79 79 79 94 94 94 95 95 95 97 97 97 98 98 98 99 99 99 
100 100 100 101 101 101 102 102 102 103 103 103 104 104 104 105 105 105 
105 105 105 106 106 106 106 106 106 108 108 108 112 112 112 116 116 116 
117 117 117 169 169 169 229 229 229 213 213 213 212 212 212 212 212 212 
211 211 211 212 212 212 230 230 230 218 218 218 155 155 155 92 92 92 76 76 76 
93 93 93 95 95 95 97 97 97 98 98 98 98 98 98 99 99 99 100 100 100 102 102 102 
103 103 103 103 103 103 104 104 104 105 105 105 105 105 105 106 106 106 
108 108 108 112 112 112 116 116 116 116 116 116 168 168 168 228 228 228 
213 213 213 213 213 213 213 213 213 212 212 212 212 212 212 226 226 226 
212 212 212 151 151 151 92 92 92 77 77 77 94 94 94 95 95 95 97 97 97 98 98 98 
99 99 99 100 100 100 101 101 101 102 102 102 103 103 103 103 103 103 104 104 104 
104 104 104 106 106 106 106 106 106 108 108 108 112 112 112 116 116 116 
116 116 116 168 168 168 229 229 229 212 212 212 213 213 213 213 213 213 
212 212 212 212 212 212 228 228 228 213 213 213 152 152 152 91 91 91 77 77 77 
94 94 94 95 95 95 96 96 96 97 97 97 99 99 99 100 100 100 101 101 101 102 102 102 
103 103 103 103 103 103 103 103 103 104 104 104 106 106 106 106 106 106 
108 108 108 112 112 112 115 115 115 116 116 116 168 168 168 229 229 229 
213 213 213 212 212 212 213 213 213 213 213 213 213 213 213 227 227 227 
212 212 212 151 151 151 91 91 91 77 77 77 94 94 94 95 95 95 96 96 96 97 97 97 
99 99 99 100 100 100 101 101 101 102 102 102 103 103 103 103 103 103 104 104 104 
104 104 104 106 106 106 106 106 106 108 108 108 111 111 111 115 115 115 
116 116 116 168 168 168 229 229 229 213 213 213 213 213 213 212 212 212 
213 213 213 213 213 213 229 229 229 212 212 212 142 142 142 77 77 77 68 68 68 
94 94 94 96 96 96 95 95 95 97 97 97 98 98 98 99 99 99 101 101 101 101 101 101 
102 102 102 103 103 103 104 104 104 105 105 105 106 106 106 106 106 106 
107 107 107 111 111 111 115 115 115 115 115 115 168 168 168 230 230 230 
214 214 214 213 213 213 213 213 213 212 212 212 213 213 213 228 228 228 
213 213 213 151 151 151 91 91 91 77 77 77 94 94 94 95 95 95 96 96 96 96 96 96 
98 98 98 99 99 99 101 101 101 101 101 101 102 102 102 102 102 102 104 104 104 
105 105 105 106 106 106 105 105 105 107 107 107 111 111 111 115 115 115 
115 115 115 168 168 168 230 230 230 214 214 214 213 213 213 213 213 213 
213 213 213 212 212 212 221 221 221 213 213 213 183 183 183 142 142 142 
108 108 108 93 93 93 88 88 88 96 96 96 97 97 97 97 97 97 99 99 99 100 100 100 
101 101 101 101 101 101 103 103 103 104 104 104 104 104 104 105 105 105 
105 105 105 106 106 106 111 111 111 114 114 114 115 115 115 167 167 167 
230 230 230 214 214 214 214 214 214 214 214 214 213 213 213 213 213 213 
214 214 214 213 213 213 218 218 218 197 197 197 142 142 142 93 93 93 81 81 81 
96 96 96 97 97 97 98 98 98 99 99 99 100 100 100 101 101 101 102 102 102 
103 103 103 104 104 104 104 104 104 105 105 105 105 105 105 107 107 107 
110 110 110 114 114 114 114 114 114 167 167 167 230 230 230 214 214 214 
214 214 214 214 214 214 213 213 213 213 213 213 212 212 212 213 213 213 
231 231 231 218 218 218 155 155 155 92 92 92 78 78 78 95 95 95 96 96 96 
98 98 98 99 99 99 99 99 99 100 100 100 102 102 102 102 102 102 103 103 103 
104 104 104 104 104 104 105 105 105 107 107 107 110 110 110 113 113 113 
114 114 114 167 167 167 230 230 230 215 215 215 214 214 214 214 214 214 
213 213 213 214 214 214 214 214 214 214 214 214 228 228 228 213 213 213 
152 152 152 93 93 93 78 78 78 95 95 95 96 96 96 98 98 98 99 99 99 100 100 100 
101 101 101 102 102 102 102 102 102 103 103 103 103 103 103 105 105 105 
105 105 105 107 107 107 110 110 110 113 113 113 113 113 113 167 167 167 
230 230 230 215 215 215 214 214 214 214 214 214 214 214 214 214 214 214 
213 213 213 214 214 214 230 230 230 215 215 215 154 154 154 93 93 93 78 78 78 
94 94 94 96 96 96 97 97 97 98 98 98 100 100 100 101 101 101 102 102 102 
102 102 102 102 102 102 103 103 103 105 105 105 105 105 105 106 106 106 
110 110 110 113 113 113 113 113 113 166 166 166 230 230 230 215 215 215 
215 215 215 215 215 215 214 214 214 214 214 214 213 213 213 214 214 214 
229 229 229 214 214 214 153 153 153 93 93 93 78 78 78 95 95 95 95 95 95 
97 97 97 98 98 98 100 100 100 101 101 101 102 102 102 102 102 102 103 103 103 
104 104 104 105 105 105 104 104 104 106 106 106 109 109 109 113 113 113 
113 113 113 166 166 166 230 230 230 214 214 214 215 215 215 215 215 215 
214 214 214 214 214 214 214 214 214 213 213 213 230 230 230 214 214 214 
144 144 144 79 79 79 70 70 70 95 95 95 97 97 97 96 96 96 98 98 98 100 100 100 
101 101 101 101 101 101 102 102 102 103 103 103 104 104 104 105 105 105 
104 104 104 105 105 105 109 109 109 112 112 112 113 113 113 166 166 166 
230 230 230 215 215 215 214 214 214 215 215 215 215 215 215 215 215 215 
214 214 214 214 214 214 229 229 229 214 214 214 152 152 152 92 92 92 78 78 78 
95 95 95 96 96 96 97 97 97 98 98 98 100 100 100 100 100 100 101 101 101 
101 101 101 103 103 103 104 104 104 105 105 105 105 105 105 106 106 106 
109 109 109 112 112 112 112 112 112 166 166 166 230 230 230 215 215 215 
215 215 215 214 214 214 215 215 215 215 215 215 214 214 214 214 214 214 
223 223 223 213 213 213 183 183 183 141 141 141 109 109 109 95 95 95 89 89 89 
97 97 97 98 98 98 99 99 99 100 100 100 100 100 100 102 102 102 103 103 103 
103 103 103 104 104 104 104 104 104 106 106 106 109 109 109 112 112 112 
112 112 112 166 166 166 231 231 231 216 216 216 215 215 215 215 215 215 
214 214 214 215 215 215 215 215 215 215 215 215 216 216 216 214 214 214 
217 217 217 196 196 196 143 143 143 95 95 95 83 83 83 97 97 97 98 98 98 
99 99 99 100 100 100 101 101 101 102 102 102 103 103 103 103 103 103 104 104 104 
104 104 104 106 106 106 109 109 109 112 112 112 112 112 112 166 166 166 
231 231 231 216 216 216 215 215 215 215 215 215 215 215 215 214 214 214 
215 215 215 215 215 215 214 214 214 214 214 214 231 231 231 217 217 217 
156 156 156 94 94 94 80 80 80 97 97 97 98 98 98 98 98 98 99 99 99 101 101 101 
101 101 101 102 102 102 103 103 103 103 103 103 104 104 104 106 106 106 
109 109 109 111 111 111 111 111 111 166 166 166 231 231 231 216 216 216 
216 216 216 216 216 216 215 215 215 215 215 215 214 214 214 215 215 215 
215 215 215 215 215 215 229 229 229 214 214 214 153 153 153 94 94 94 80 80 80 
97 97 97 98 98 98 99 99 99 100 100 100 101 101 101 101 101 101 102 102 102 
102 102 102 104 104 104 104 104 104 106 106 106 108 108 108 111 111 111 
111 111 111 166 166 166 231 231 231 216 216 216 216 216 216 216 216 216 
215 215 215 215 215 215 215 215 215 214 214 214 214 214 214 215 215 215 
231 231 231 216 216 216 155 155 155 93 93 93 79 79 79 96 96 96 97 97 97 
99 99 99 100 100 100 101 101 101 101 101 101 101 101 101 102 102 102 104 104 104 
104 104 104 105 105 105 108 108 108 111 111 111 111 111 111 165 165 165 
231 231 231 217 217 217 216 216 216 216 216 216 216 216 216 216 216 216 
215 215 215 215 215 215 214 214 214 215 215 215 230 230 230 215 215 215 
154 154 154 94 94 94 79 79 79 96 96 96 97 97 97 99 99 99 100 100 100 101 101 101 
101 101 101 102 102 102 103 103 103 104 104 104 104 104 104 105 105 105 
108 108 108 111 111 111 111 111 111 165 165 165 231 231 231 217 217 217 
216 216 216 216 216 216 216 216 216 216 216 216 215 215 215 215 215 215 
215 215 215 214 214 214 231 231 231 215 215 215 146 146 146 81 81 81 71 71 71 
95 95 95 98 98 98 98 98 98 99 99 99 100 100 100 101 101 101 102 102 102 
103 103 103 104 104 104 104 104 104 104 104 104 108 108 108 110 110 110 
110 110 110 165 165 165 231 231 231 217 217 217 217 217 217 217 217 217 
216 216 216 216 216 216 216 216 216 216 216 216 215 215 215 215 215 215 
230 230 230 215 215 215 154 154 154 94 94 94 79 79 79 96 96 96 97 97 97 
98 98 98 99 99 99 100 100 100 101 101 101 102 102 102 103 103 103 104 104 104 
104 104 104 105 105 105 107 107 107 110 110 110 110 110 110 165 165 165 
231 231 231 216 216 216 217 217 217 217 217 217 216 216 216 216 216 216 
216 216 216 216 216 216 215 215 215 215 215 215 224 224 224 214 214 214 
184 184 184 142 142 142 109 109 109 96 96 96 90 90 90 97 97 97 98 98 98 
99 99 99 101 101 101 102 102 102 102 102 102 103 103 103 103 103 103 105 105 105 
107 107 107 109 109 109 109 109 109 165 165 165 231 231 231 217 217 217 
216 216 216 217 217 217 217 217 217 217 217 217 216 216 216 216 216 216 
216 216 216 216 216 216 218 218 218 215 215 215 217 217 217 195 195 195 
142 142 142 96 96 96 84 84 84 98 98 98 99 99 99 100 100 100 101 101 101 
102 102 102 102 102 102 103 103 103 103 103 103 105 105 105 107 107 107 
109 109 109 109 109 109 165 165 165 231 231 231 217 217 217 217 217 217 
216 216 216 217 217 217 217 217 217 216 216 216 216 216 216 216 216 216 
216 216 216 215 215 215 215 215 215 231 231 231 217 217 217 156 156 156 
96 96 96 81 81 81 98 98 98 99 99 99 100 100 100 100 100 100 101 101 101 
102 102 102 102 102 102 103 103 103 105 105 105 107 107 107 109 109 109 
109 109 109 164 164 164 232 232 232 218 218 218 217 217 217 217 217 217 
216 216 216 217 217 217 217 217 217 217 217 217 216 216 216 216 216 216 
216 216 216 216 216 216 230 230 230 215 215 215 155 155 155 96 96 96 81 81 81 
98 98 98 99 99 99 100 100 100 100 100 100 101 101 101 101 101 101 103 103 103 
103 103 103 105 105 105 107 107 107 109 109 109 109 109 109 164 164 164 
232 232 232 218 218 218 217 217 217 217 217 217 217 217 217 216 216 216 
217 217 217 217 217 217 216 216 216 215 215 215 215 215 215 216 216 216 
232 232 232 218 218 218 156 156 156 95 95 95 80 80 80 97 97 97 98 98 98 
100 100 100 100 100 100 100 100 100 101 101 101 103 103 103 103 103 103 
104 104 104 106 106 106 108 108 108 108 108 108 164 164 164 231 231 231 
218 218 218 218 218 218 218 218 218 217 217 217 217 217 217 217 217 217 
217 217 217 216 216 216 216 216 216 215 215 215 216 216 216 231 231 231 
216 216 216 155 155 155 95 95 95 80 80 80 97 97 97 98 98 98 100 100 100 
100 100 100 101 101 101 102 102 102 103 103 103 103 103 103 104 104 104 
106 106 106 108 108 108 108 108 108 164 164 164 232 232 232 217 217 217 
218 218 218 218 218 218 217 217 217 217 217 217 217 217 217 217 217 217 
216 216 216 216 216 216 216 216 216 215 215 215 232 232 232 216 216 216 
147 147 147 82 82 82 72 72 72 96 96 96 99 99 99 99 99 99 100 100 100 101 101 101 
102 102 102 103 103 103 103 103 103 103 103 103 106 106 106 108 108 108 
108 108 108 163 163 163 232 232 232 218 218 218 217 217 217 218 218 218 
218 218 218 218 218 218 217 217 217 217 217 217 217 217 217 217 217 217 
216 216 216 216 216 216 231 231 231 216 216 216 155 155 155 95 95 95 80 80 80 
97 97 97 98 98 98 99 99 99 100 100 100 101 101 101 102 102 102 103 103 103 
103 103 103 104 104 104 106 106 106 108 108 108 108 108 108 163 163 163 
232 232 232 218 218 218 218 218 218 218 218 218 218 218 218 218 218 218 
217 217 217 216 216 216 216 216 216 217 217 217 216 216 216 216 216 216 
225 225 225 215 215 215 185 185 185 144 144 144 111 111 111 97 97 97 91 91 91 
98 98 98 99 99 99 101 101 101 101 101 101 102 102 102 103 103 103 104 104 104 
106 106 106 107 107 107 107 107 107 163 163 163 233 233 233 219 219 219 
218 218 218 218 218 218 218 218 218 218 218 218 217 217 217 217 217 217 
216 216 216 217 217 217 217 217 217 217 217 217 218 218 218 216 216 216 
219 219 219 198 198 198 145 145 145 97 97 97 85 85 85 99 99 99 100 100 100 
101 101 101 101 101 101 102 102 102 102 102 102 104 104 104 105 105 105 
107 107 107 107 107 107 163 163 163 233 233 233 219 219 219 218 218 218 
217 217 217 217 217 217 218 218 218 217 217 217 217 217 217 217 217 217 
216 216 216 217 217 217 217 217 217 216 216 216 216 216 216 233 233 233 
219 219 219 158 158 158 97 97 97 82 82 82 99 99 99 100 100 100 101 101 101 
101 101 101 101 101 101 102 102 102 104 104 104 105 105 105 107 107 107 
107 107 107 163 163 163 233 233 233 219 219 219 218 218 218 218 218 218 
217 217 217 218 218 218 218 218 218 218 218 218 217 217 217 217 217 217 
216 216 216 217 217 217 217 217 217 217 217 217 231 231 231 216 216 216 
156 156 156 97 97 97 82 82 82 99 99 99 100 100 100 101 101 101 101 101 101 
102 102 102 102 102 102 104 104 104 105 105 105 107 107 107 107 107 107 
163 163 163 232 232 232 219 219 219 218 218 218 218 218 218 218 218 218 
217 217 217 218 218 218 218 218 218 217 217 217 217 217 217 217 217 217 
216 216 216 216 216 216 217 217 217 233 233 233 218 218 218 157 157 157 
96 96 96 81 81 81 98 98 98 99 99 99 100 100 100 101 101 101 102 102 102 
102 102 102 103 103 103 105 105 105 106 106 106 106 106 106 162 162 162 
232 232 232 219 219 219 219 219 219 219 219 219 218 218 218 218 218 218 
217 217 217 218 218 218 218 218 218 218 218 218 217 217 217 217 217 217 
216 216 216 217 217 217 232 232 232 217 217 217 156 156 156 96 96 96 81 81 81 
98 98 98 99 99 99 100 100 100 101 101 101 102 102 102 102 102 102 103 103 103 
104 104 104 106 106 106 105 105 105 162 162 162 233 233 233 218 218 218 
219 219 219 219 219 219 218 218 218 218 218 218 218 218 218 217 217 217 
218 218 218 218 218 218 217 217 217 217 217 217 217 217 217 216 216 216 
233 233 233 217 217 217 148 148 148 83 83 83 73 73 73 97 97 97 100 100 100 
99 99 99 101 101 101 102 102 102 102 102 102 102 102 102 104 104 104 105 105 105 
105 105 105 162 162 162 233 233 233 219 219 219 218 218 218 219 219 219 
219 219 219 219 219 219 218 218 218 218 218 218 217 217 217 218 218 218 
218 218 218 218 218 218 217 217 217 217 217 217 232 232 232 217 217 217 
156 156 156 96 96 96 81 81 81 98 98 98 99 99 99 100 100 100 101 101 101 
102 102 102 102 102 102 103 103 103 104 104 104 105 105 105 105 105 105 
162 162 162 233 233 233 219 219 219 219 219 219 218 218 218 219 219 219 
219 219 219 218 218 218 218 218 218 218 218 218 217 217 217 218 218 218 
218 218 218 217 217 217 217 217 217 226 226 226 216 216 216 186 186 186 
145 145 145 112 112 112 98 98 98 92 92 92 100 100 100 100 100 100 101 101 101 
102 102 102 103 103 103 104 104 104 105 105 105 105 105 105 161 161 161 
233 233 233 220 220 220 219 219 219 219 219 219 218 218 218 219 219 219 
219 219 219 219 219 219 218 218 218 218 218 218 217 217 217 218 218 218 
218 218 218 218 218 218 219 219 219 217 217 217 220 220 220 199 199 199 
146 146 146 98 98 98 86 86 86 100 100 100 100 100 100 101 101 101 101 101 101 
103 103 103 104 104 104 105 105 105 104 104 104 161 161 161 233 233 233 
220 220 220 219 219 219 219 219 219 219 219 219 218 218 218 219 219 219 
219 219 219 218 218 218 218 218 218 218 218 218 217 217 217 218 218 218 
218 218 218 217 217 217 217 217 217 234 234 234 220 220 220 159 159 159 
98 98 98 83 83 83 100 100 100 100 100 100 100 100 100 101 101 101 103 103 103 
104 104 104 104 104 104 104 104 104 161 161 161 233 233 233 220 220 220 
220 220 220 220 220 220 219 219 219 219 219 219 218 218 218 219 219 219 
219 219 219 219 219 219 218 218 218 218 218 218 217 217 217 218 218 218 
218 218 218 218 218 218 232 232 232 217 217 217 157 157 157 98 98 98 84 84 84 
100 100 100 100 100 100 101 101 101 102 102 102 103 103 103 103 103 103 
104 104 104 104 104 104 161 161 161 233 233 233 219 219 219 220 220 220 
220 220 220 219 219 219 219 219 219 219 219 219 219 219 219 219 219 219 
219 219 219 218 218 218 218 218 218 218 218 218 218 218 218 217 217 217 
218 218 218 233 233 233 219 219 219 158 158 158 97 97 97 83 83 83 99 99 99 
100 100 100 101 101 101 101 101 101 102 102 102 103 103 103 104 104 104 
104 104 104 161 161 161 233 233 233 220 220 220 219 219 219 220 220 220 
220 220 220 220 220 220 219 219 219 219 219 219 218 218 218 219 219 219 
219 219 219 219 219 219 218 218 218 218 218 218 218 218 218 218 218 218 
232 232 232 217 217 217 156 156 156 97 97 97 82 82 82 99 99 99 100 100 100 
101 101 101 101 101 101 102 102 102 103 103 103 104 104 104 103 103 103 
161 161 161 233 233 233 220 220 220 220 220 220 220 220 220 220 220 220 
220 220 220 219 219 219 218 218 218 218 218 218 219 219 219 219 219 219 
219 219 219 218 218 218 217 217 217 217 217 217 218 218 218 234 234 234 
217 217 217 147 147 147 82 82 82 73 73 73 98 98 98 101 101 101 101 101 101 
101 101 101 101 101 101 102 102 102 103 103 103 103 103 103 161 161 161 
234 234 234 221 221 221 220 220 220 220 220 220 220 220 220 220 220 220 
219 219 219 219 219 219 218 218 218 219 219 219 219 219 219 219 219 219 
218 218 218 218 218 218 217 217 217 218 218 218 233 233 233 218 218 218 
157 157 157 97 97 97 82 82 82 99 99 99 100 100 100 101 101 101 101 101 101 
102 102 102 102 102 102 103 103 103 103 103 103 161 161 161 234 234 234 
221 221 221 220 220 220 219 219 219 219 219 219 220 220 220 219 219 219 
219 219 219 219 219 219 218 218 218 218 218 218 219 219 219 218 218 218 
218 218 218 218 218 218 217 217 217 225 225 225 218 218 218 193 193 193 
155 155 155 119 119 119 99 99 99 92 92 92 101 101 101 101 101 101 102 102 102 
102 102 102 103 103 103 102 102 102 160 160 160 234 234 234 221 221 221 
220 220 220 220 220 220 219 219 219 220 220 220 220 220 220 220 220 220 
219 219 219 219 219 219 218 218 218 219 219 219 219 219 219 219 219 219 
218 218 218 218 218 218 218 218 218 218 218 218 231 231 231 215 215 215 
156 156 156 99 99 99 85 85 85 101 101 101 101 101 101 102 102 102 102 102 102 
103 103 103 102 102 102 160 160 160 233 233 233 221 221 221 220 220 220 
220 220 220 220 220 220 219 219 219 220 220 220 220 220 220 219 219 219 
219 219 219 219 219 219 218 218 218 219 219 219 219 219 219 218 218 218 
218 218 218 216 216 216 217 217 217 241 241 241 231 231 231 166 166 166 
98 98 98 82 82 82 100 100 100 101 101 101 102 102 102 102 102 102 102 102 102 
102 102 102 160 160 160 233 233 233 221 221 221 221 221 221 221 221 221 
220 220 220 220 220 220 219 219 219 220 220 220 220 220 220 220 220 220 
219 219 219 219 219 219 218 218 218 219 219 219 219 219 219 219 219 219 
218 218 218 218 218 218 232 232 232 218 218 218 157 157 157 98 98 98 83 83 83 
100 100 100 101 101 101 102 102 102 102 102 102 102 102 102 102 102 102 
160 160 160 234 234 234 220 220 220 221 221 221 221 221 221 220 220 220 
220 220 220 220 220 220 219 219 219 220 220 220 220 220 220 219 219 219 
219 219 219 219 219 219 218 218 218 219 219 219 219 219 219 218 218 218 
218 218 218 233 233 233 218 218 218 157 157 157 97 97 97 83 83 83 99 99 99 
100 100 100 101 101 101 102 102 102 102 102 102 101 101 101 160 160 160 
234 234 234 221 221 221 220 220 220 221 221 221 221 221 221 221 221 221 
220 220 220 220 220 220 219 219 219 220 220 220 220 220 220 220 220 220 
219 219 219 219 219 219 218 218 218 219 219 219 219 219 219 219 219 219 
233 233 233 218 218 218 157 157 157 98 98 98 83 83 83 100 100 100 100 100 100 
101 101 101 101 101 101 102 102 102 101 101 101 160 160 160 234 234 234 
221 221 221 221 221 221 220 220 220 221 221 221 221 221 221 220 220 220 
220 220 220 220 220 220 220 220 220 220 220 220 220 220 220 219 219 219 
219 219 219 219 219 219 219 219 219 219 219 219 219 219 219 235 235 235 
218 218 218 150 150 150 85 85 85 76 76 76 100 100 100 102 102 102 100 100 100 
101 101 101 101 101 101 101 101 101 160 160 160 235 235 235 222 222 222 
221 221 221 221 221 221 220 220 220 221 221 221 221 221 221 221 221 221 
220 220 220 220 220 220 219 219 219 220 220 220 220 220 220 220 220 220 
219 219 219 219 219 219 218 218 218 219 219 219 234 234 234 219 219 219 
158 158 158 98 98 98 83 83 83 100 100 100 100 100 100 101 101 101 101 101 101 
101 101 101 101 101 101 160 160 160 235 235 235 222 222 222 221 221 221 
221 221 221 221 221 221 221 221 221 221 221 221 221 221 221 220 220 220 
219 219 219 219 219 219 220 220 220 220 220 220 220 220 220 219 219 219 
218 218 218 218 218 218 219 219 219 228 228 228 219 219 219 187 187 187 
144 144 144 113 113 113 100 100 100 94 94 94 101 101 101 101 101 101 101 101 101 
100 100 100 159 159 159 234 234 234 222 222 222 222 222 222 222 222 222 
221 221 221 221 221 221 221 221 221 221 221 221 220 220 220 220 220 220 
219 219 219 220 220 220 220 220 220 220 220 220 219 219 219 219 219 219 
218 218 218 219 219 219 221 221 221 219 219 219 220 220 220 197 197 197 
145 145 145 100 100 100 88 88 88 101 101 101 101 101 101 101 101 101 100 100 100 
159 159 159 235 235 235 221 221 221 222 222 222 222 222 222 221 221 221 
220 220 220 220 220 220 221 221 221 220 220 220 220 220 220 220 220 220 
219 219 219 219 219 219 220 220 220 219 219 219 219 219 219 219 219 219 
218 218 218 218 218 218 219 219 219 234 234 234 220 220 220 159 159 159 
99 99 99 85 85 85 101 101 101 101 101 101 100 100 100 100 100 100 159 159 159 
235 235 235 222 222 222 222 222 222 222 222 222 221 221 221 221 221 221 
220 220 220 221 221 221 221 221 221 221 221 221 220 220 220 220 220 220 
219 219 219 220 220 220 220 220 220 220 220 220 219 219 219 219 219 219 
218 218 218 219 219 219 234 234 234 219 219 219 158 158 158 99 99 99 85 85 85 
101 101 101 100 100 100 100 100 100 100 100 100 159 159 159 235 235 235 
222 222 222 222 222 222 222 222 222 221 221 221 221 221 221 221 221 221 
220 220 220 221 221 221 221 221 221 220 220 220 220 220 220 220 220 220 
220 220 220 220 220 220 220 220 220 219 219 219 219 219 219 218 218 218 
219 219 219 235 235 235 221 221 221 160 160 160 98 98 98 84 84 84 101 101 101 
100 100 100 99 99 99 99 99 99 158 158 158 235 235 235 223 223 223 222 222 222 
222 222 222 222 222 222 222 222 222 221 221 221 221 221 221 220 220 220 
221 221 221 221 221 221 221 221 221 220 220 220 220 220 220 219 219 219 
220 220 220 220 220 220 220 220 220 219 219 219 219 219 219 233 233 233 
219 219 219 158 158 158 99 99 99 85 85 85 101 101 101 100 100 100 99 99 99 
98 98 98 158 158 158 235 235 235 223 223 223 222 222 222 221 221 221 221 221 221 
222 222 222 221 221 221 221 221 221 221 221 221 220 220 220 221 221 221 
221 221 221 220 220 220 219 219 219 219 219 219 220 220 220 220 220 220 
220 220 220 219 219 219 218 218 218 235 235 235 219 219 219 151 151 151 
86 86 86 77 77 77 100 100 100 101 101 101 99 99 99 98 98 98 158 158 158 
235 235 235 223 223 223 222 222 222 222 222 222 221 221 221 222 222 222 
222 222 222 222 222 222 221 221 221 221 221 221 221 221 221 221 221 221 
220 220 220 220 220 220 219 219 219 220 220 220 220 220 220 220 220 220 
219 219 219 219 219 219 233 233 233 219 219 219 158 158 158 99 99 99 84 84 84 
100 100 100 99 99 99 99 99 99 98 98 98 158 158 158 235 235 235 223 223 223 
222 222 222 222 222 222 222 222 222 221 221 221 222 222 222 222 222 222 
221 221 221 221 221 221 221 221 221 221 221 221 220 220 220 220 220 220 
220 220 220 219 219 219 219 219 219 220 220 220 219 219 219 219 219 219 
228 228 228 218 218 218 187 187 187 144 144 144 113 113 113 99 99 99 93 93 93 
98 98 98 98 98 98 158 158 158 235 235 235 223 223 223 223 223 223 223 223 223 
222 222 222 222 222 222 221 221 221 222 222 222 222 222 222 222 222 222 
221 221 221 221 221 221 221 221 221 221 221 221 220 220 220 220 220 220 
219 219 219 220 220 220 220 220 220 220 220 220 222 222 222 219 219 219 
219 219 219 196 196 196 145 145 145 100 100 100 87 87 87 98 98 98 97 97 97 
158 158 158 235 235 235 222 222 222 223 223 223 223 223 223 222 222 222 
222 222 222 222 222 222 221 221 221 222 222 222 222 222 222 221 221 221 
220 220 220 220 220 220 221 221 221 220 220 220 220 220 220 220 220 220 
219 219 219 220 220 220 220 220 220 219 219 219 219 219 219 234 234 234 
219 219 219 160 160 160 100 100 100 84 84 84 98 98 98 97 97 97 157 157 157 
235 235 235 223 223 223 222 222 222 223 223 223 223 223 223 223 223 223 
222 222 222 222 222 222 222 222 222 222 222 222 221 221 221 221 221 221 
220 220 220 221 221 221 221 221 221 221 221 221 220 220 220 220 220 220 
219 219 219 220 220 220 220 220 220 220 220 220 234 234 234 219 219 219 
159 159 159 100 100 100 84 84 84 98 98 98 97 97 97 157 157 157 235 235 235 
223 223 223 223 223 223 222 222 222 223 223 223 223 223 223 222 222 222 
222 222 222 222 222 222 222 222 222 221 221 221 221 221 221 221 221 221 
220 220 220 221 221 221 221 221 221 220 220 220 220 220 220 220 220 220 
220 220 220 219 219 219 220 220 220 236 236 236 222 222 222 161 161 161 
100 100 100 83 83 83 97 97 97 97 97 97 157 157 157 236 236 236 224 224 224 
223 223 223 223 223 223 222 222 222 223 223 223 223 223 223 223 223 223 
222 222 222 222 222 222 222 222 222 222 222 222 221 221 221 221 221 221 
220 220 220 221 221 221 221 221 221 221 221 221 220 220 220 220 220 220 
219 219 219 220 220 220 235 235 235 220 220 220 160 160 160 100 100 100 
83 83 83 97 97 97 96 96 96 157 157 157 236 236 236 224 224 224 223 223 223 
223 223 223 223 223 223 223 223 223 223 223 223 223 223 223 222 222 222 
221 221 221 221 221 221 222 222 222 221 221 221 221 221 221 221 221 221 
220 220 220 221 221 221 221 221 221 220 220 220 219 219 219 219 219 219 
220 220 220 236 236 236 220 220 220 152 152 152 87 87 87 75 75 75 97 97 97 
97 97 97 156 156 156 235 235 235 224 224 224 224 224 224 224 224 224 223 223 223 
223 223 223 223 223 223 223 223 223 222 222 222 222 222 222 221 221 221 
222 222 222 222 222 222 222 222 222 221 221 221 221 221 221 221 221 221 
221 221 221 220 220 220 220 220 220 219 219 219 220 220 220 235 235 235 
220 220 220 160 160 160 100 100 100 83 83 83 97 97 97 96 96 96 156 156 156 
236 236 236 224 224 224 224 224 224 224 224 224 223 223 223 222 222 222 
222 222 222 223 223 223 222 222 222 222 222 222 222 222 222 221 221 221 
222 222 222 222 222 222 221 221 221 221 221 221 221 221 221 221 221 221 
220 220 220 220 220 220 220 220 220 219 219 219 229 229 229 220 220 220 
189 189 189 146 146 146 112 112 112 96 96 96 90 90 90 156 156 156 236 236 236 
224 224 224 224 224 224 224 224 224 223 223 223 223 223 223 222 222 222 
223 223 223 223 223 223 223 223 223 222 222 222 222 222 222 221 221 221 
222 222 222 222 222 222 222 222 222 221 221 221 221 221 221 221 221 221 
221 221 221 220 220 220 220 220 220 222 222 222 220 220 220 222 222 222 
199 199 199 144 144 144 96 96 96 83 83 83 156 156 156 236 236 236 223 223 223 
223 223 223 224 224 224 223 223 223 223 223 223 223 223 223 222 222 222 
223 223 223 223 223 223 222 222 222 222 222 222 222 222 222 222 222 222 
222 222 222 222 222 222 221 221 221 220 220 220 220 220 220 221 221 221 
220 220 220 220 220 220 219 219 219 219 219 219 236 236 236 221 221 221 
159 159 159 96 96 96 80 80 80 156 156 156 236 236 236 224 224 224 223 223 223 
224 224 224 224 224 224 224 224 224 223 223 223 223 223 223 222 222 222 
223 223 223 223 223 223 223 223 223 222 222 222 222 222 222 222 222 222 
222 222 222 221 221 221 221 221 221 220 220 220 221 221 221 221 221 221 
221 221 221 220 220 220 220 220 220 235 235 235 220 220 220 158 158 158 
96 96 96 80 80 80 156 156 156 236 236 236 224 224 224 224 224 224 223 223 223 
224 224 224 224 224 224 223 223 223 223 223 223 223 223 223 223 223 223 
223 223 223 223 223 223 222 222 222 221 221 221 221 221 221 222 222 222 
221 221 221 221 221 221 221 221 221 220 220 220 221 221 221 221 221 221 
220 220 220 220 220 220 239 239 239 222 222 222 151 151 151 80 80 80 63 63 63 
147 147 147 236 236 236 225 225 225 224 224 224 224 224 224 223 223 223 
224 224 224 224 224 224 224 224 224 223 223 223 223 223 223 223 223 223 
223 223 223 222 222 222 222 222 222 221 221 221 222 222 222 222 222 222 
222 222 222 221 221 221 221 221 221 220 220 220 221 221 221 221 221 221 
221 221 221 236 236 236 220 220 220 157 157 157 95 95 95 79 79 79 156 156 156 
236 236 236 225 225 225 224 224 224 224 224 224 224 224 224 224 224 224 
224 224 224 224 224 224 223 223 223 222 222 222 222 222 222 223 223 223 
222 222 222 222 222 222 222 222 222 221 221 221 222 222 222 222 222 222 
221 221 221 221 221 221 221 221 221 221 221 221 221 221 221 221 221 221 
228 228 228 219 219 219 186 186 186 152 152 152 141 141 141 188 188 188 
236 236 236 225 225 225 225 225 225 225 225 225 224 224 224 224 224 224 
224 224 224 224 224 224 223 223 223 223 223 223 222 222 222 223 223 223 
223 223 223 223 223 223 222 222 222 222 222 222 221 221 221 222 222 222 
222 222 222 222 222 222 221 221 221 221 221 221 221 221 221 221 221 221 
221 221 221 220 220 220 216 216 216 212 212 212 207 207 207 223 223 223 
248 248 248 244 244 244 244 244 244 244 244 244 243 243 243 243 243 243 
243 243 243 243 243 243 243 243 243 243 243 243 243 243 243 242 242 242 
243 243 243 243 243 243 242 242 242 242 242 242 242 242 242 242 242 242 
242 242 242 242 242 242 242 242 242 242 242 242 242 242 242 242 242 242 
241 241 241 242 242 242 244 244 244 245 245 245 245 245 245 248 248 248 

