P3
# Created by Paint Shop Pro 7
30 108
255
236 236 236 224 224 224 149 149 149 150 150 150 152 152 152 152 152 152 
153 153 153 154 154 154 155 155 155 156 156 156 156 156 156 158 158 158 
158 158 158 159 159 159 160 160 160 160 160 160 161 161 161 161 161 161 
162 162 162 163 163 163 163 163 163 164 164 164 165 165 165 165 165 165 
166 166 166 166 166 166 167 167 167 174 174 174 174 174 174 205 205 205 
224 224 224 205 205 205 84 84 84 86 86 86 87 87 87 89 89 89 91 91 91 92 92 92 
93 93 93 95 95 95 96 96 96 98 98 98 99 99 99 100 100 100 101 101 101 102 102 102 
103 103 103 104 104 104 105 105 105 106 106 106 107 107 107 108 108 108 
109 109 109 110 110 110 111 111 111 112 112 112 113 113 113 125 125 125 
125 125 125 174 174 174 225 225 225 206 206 206 84 84 84 86 86 86 87 87 87 
89 89 89 90 90 90 92 92 92 93 93 93 95 95 95 96 96 96 98 98 98 99 99 99 
100 100 100 101 101 101 102 102 102 103 103 103 104 104 104 105 105 105 
106 106 106 107 107 107 108 108 108 109 109 109 110 110 110 111 111 111 
112 112 112 113 113 113 125 125 125 124 124 124 174 174 174 225 225 225 
206 206 206 83 83 83 86 86 86 87 87 87 89 89 89 90 90 90 92 92 92 93 93 93 
95 95 95 96 96 96 97 97 97 99 99 99 100 100 100 101 101 101 102 102 102 
103 103 103 104 104 104 105 105 105 106 106 106 107 107 107 108 108 108 
109 109 109 110 110 110 111 111 111 112 112 112 112 112 112 124 124 124 
124 124 124 174 174 174 225 225 225 206 206 206 84 84 84 86 86 86 87 87 87 
89 89 89 90 90 90 92 92 92 93 93 93 94 94 94 96 96 96 97 97 97 99 99 99 
100 100 100 101 101 101 102 102 102 103 103 103 104 104 104 105 105 105 
106 106 106 107 107 107 108 108 108 109 109 109 110 110 110 111 111 111 
111 111 111 112 112 112 124 124 124 124 124 124 173 173 173 225 225 225 
207 207 207 203 203 203 85 85 85 87 87 87 89 89 89 90 90 90 91 91 91 93 93 93 
94 94 94 96 96 96 97 97 97 98 98 98 100 100 100 101 101 101 102 102 102 
103 103 103 104 104 104 105 105 105 106 106 106 107 107 107 108 108 108 
109 109 109 109 109 109 110 110 110 111 111 111 112 112 112 124 124 124 
123 123 123 173 173 173 225 225 225 207 207 207 207 207 207 85 85 85 87 87 87 
88 88 88 90 90 90 91 91 91 93 93 93 94 94 94 96 96 96 97 97 97 98 98 98 
100 100 100 101 101 101 102 102 102 103 103 103 104 104 104 105 105 105 
105 105 105 106 106 106 107 107 107 108 108 108 109 109 109 110 110 110 
111 111 111 112 112 112 123 123 123 123 123 123 173 173 173 225 225 225 
207 207 207 207 207 207 85 85 85 87 87 87 88 88 88 90 90 90 91 91 91 93 93 93 
94 94 94 95 95 95 97 97 97 98 98 98 99 99 99 100 100 100 101 101 101 102 102 102 
103 103 103 104 104 104 105 105 105 106 106 106 107 107 107 108 108 108 
109 109 109 110 110 110 111 111 111 112 112 112 123 123 123 123 123 123 
173 173 173 226 226 226 207 207 207 207 207 207 85 85 85 87 87 87 88 88 88 
90 90 90 91 91 91 92 92 92 94 94 94 95 95 95 97 97 97 98 98 98 99 99 99 
100 100 100 101 101 101 102 102 102 103 103 103 104 104 104 105 105 105 
106 106 106 107 107 107 108 108 108 109 109 109 110 110 110 111 111 111 
112 112 112 123 123 123 122 122 122 173 173 173 226 226 226 208 208 208 
208 208 208 201 201 201 86 86 86 88 88 88 89 89 89 91 91 91 92 92 92 94 94 94 
95 95 95 96 96 96 98 98 98 99 99 99 100 100 100 101 101 101 102 102 102 
103 103 103 104 104 104 105 105 105 106 106 106 107 107 107 108 108 108 
109 109 109 110 110 110 111 111 111 112 112 112 122 122 122 122 122 122 
173 173 173 226 226 226 208 208 208 208 208 208 208 208 208 86 86 86 88 88 88 
89 89 89 91 91 91 92 92 92 94 94 94 95 95 95 96 96 96 98 98 98 99 99 99 
100 100 100 101 101 101 102 102 102 103 103 103 104 104 104 105 105 105 
106 106 106 107 107 107 108 108 108 109 109 109 110 110 110 110 110 110 
111 111 111 122 122 122 122 122 122 172 172 172 227 227 227 208 208 208 
208 208 208 208 208 208 86 86 86 88 88 88 89 89 89 91 91 91 92 92 92 93 93 93 
95 95 95 96 96 96 97 97 97 99 99 99 100 100 100 101 101 101 102 102 102 
103 103 103 104 104 104 105 105 105 106 106 106 107 107 107 108 108 108 
108 108 108 109 109 109 110 110 110 111 111 111 122 122 122 121 121 121 
172 172 172 227 227 227 209 209 209 208 208 208 208 208 208 86 86 86 88 88 88 
89 89 89 90 90 90 92 92 92 93 93 93 95 95 95 96 96 96 97 97 97 99 99 99 
100 100 100 101 101 101 102 102 102 103 103 103 104 104 104 105 105 105 
106 106 106 107 107 107 107 107 107 108 108 108 109 109 109 110 110 110 
111 111 111 121 121 121 121 121 121 172 172 172 227 227 227 209 209 209 
209 209 209 208 208 208 201 201 201 87 87 87 89 89 89 90 90 90 92 92 92 
93 93 93 95 95 95 96 96 96 97 97 97 99 99 99 100 100 100 101 101 101 102 102 102 
103 103 103 104 104 104 105 105 105 105 105 105 106 106 106 107 107 107 
108 108 108 109 109 109 110 110 110 111 111 111 121 121 121 121 121 121 
172 172 172 227 227 227 209 209 209 209 209 209 209 209 209 209 209 209 
87 87 87 89 89 89 90 90 90 92 92 92 93 93 93 94 94 94 96 96 96 97 97 97 
98 98 98 100 100 100 101 101 101 102 102 102 103 103 103 103 103 103 104 104 104 
105 105 105 106 106 106 107 107 107 108 108 108 109 109 109 110 110 110 
111 111 111 121 121 121 121 121 121 171 171 171 227 227 227 209 209 209 
209 209 209 209 209 209 209 209 209 87 87 87 89 89 89 90 90 90 91 91 91 
93 93 93 94 94 94 96 96 96 97 97 97 98 98 98 99 99 99 100 100 100 101 101 101 
102 102 102 103 103 103 104 104 104 105 105 105 106 106 106 107 107 107 
108 108 108 109 109 109 110 110 110 111 111 111 121 121 121 120 120 120 
171 171 171 227 227 227 210 210 210 210 210 210 209 209 209 209 209 209 
87 87 87 89 89 89 90 90 90 91 91 91 93 93 93 94 94 94 95 95 95 97 97 97 
98 98 98 99 99 99 100 100 100 101 101 101 102 102 102 103 103 103 104 104 104 
105 105 105 106 106 106 107 107 107 108 108 108 109 109 109 109 109 109 
110 110 110 120 120 120 120 120 120 171 171 171 227 227 227 210 210 210 
210 210 210 210 210 210 209 209 209 203 203 203 88 88 88 90 90 90 91 91 91 
93 93 93 94 94 94 95 95 95 97 97 97 98 98 98 99 99 99 100 100 100 101 101 101 
102 102 102 103 103 103 104 104 104 105 105 105 106 106 106 107 107 107 
108 108 108 108 108 108 109 109 109 110 110 110 120 120 120 120 120 120 
171 171 171 227 227 227 210 210 210 210 210 210 210 210 210 210 210 210 
209 209 209 88 88 88 90 90 90 91 91 91 92 92 92 94 94 94 95 95 95 96 96 96 
98 98 98 99 99 99 100 100 100 101 101 101 102 102 102 103 103 103 104 104 104 
105 105 105 106 106 106 107 107 107 107 107 107 108 108 108 109 109 109 
110 110 110 120 120 120 119 119 119 171 171 171 228 228 228 211 211 211 
210 210 210 210 210 210 210 210 210 210 210 210 88 88 88 90 90 90 91 91 91 
92 92 92 94 94 94 95 95 95 96 96 96 98 98 98 99 99 99 100 100 100 101 101 101 
102 102 102 103 103 103 104 104 104 105 105 105 105 105 105 106 106 106 
107 107 107 108 108 108 109 109 109 110 110 110 119 119 119 119 119 119 
171 171 171 228 228 228 211 211 211 211 211 211 210 210 210 210 210 210 
210 210 210 88 88 88 89 89 89 91 91 91 92 92 92 94 94 94 95 95 95 96 96 96 
97 97 97 99 99 99 100 100 100 101 101 101 102 102 102 103 103 103 104 104 104 
104 104 104 105 105 105 106 106 106 107 107 107 108 108 108 109 109 109 
110 110 110 119 119 119 119 119 119 170 170 170 228 228 228 211 211 211 
211 211 211 211 211 211 210 210 210 210 210 210 203 203 203 89 89 89 91 91 91 
92 92 92 93 93 93 95 95 95 96 96 96 97 97 97 99 99 99 100 100 100 101 101 101 
102 102 102 103 103 103 103 103 103 104 104 104 105 105 105 106 106 106 
107 107 107 108 108 108 109 109 109 110 110 110 119 119 119 118 118 118 
170 170 170 228 228 228 211 211 211 211 211 211 211 211 211 211 211 211 
210 210 210 210 210 210 89 89 89 91 91 91 92 92 92 93 93 93 95 95 95 96 96 96 
97 97 97 98 98 98 100 100 100 101 101 101 101 101 101 102 102 102 103 103 103 
104 104 104 105 105 105 106 106 106 107 107 107 108 108 108 109 109 109 
109 109 109 118 118 118 118 118 118 170 170 170 228 228 228 212 212 212 
211 211 211 211 211 211 211 211 211 211 211 211 211 211 211 89 89 89 90 90 90 
92 92 92 93 93 93 94 94 94 96 96 96 97 97 97 98 98 98 99 99 99 100 100 100 
101 101 101 102 102 102 103 103 103 104 104 104 105 105 105 106 106 106 
107 107 107 108 108 108 108 108 108 109 109 109 118 118 118 118 118 118 
169 169 169 228 228 228 212 212 212 212 212 212 211 211 211 211 211 211 
211 211 211 211 211 211 89 89 89 90 90 90 92 92 92 93 93 93 94 94 94 96 96 96 
97 97 97 98 98 98 99 99 99 100 100 100 101 101 101 102 102 102 103 103 103 
104 104 104 105 105 105 106 106 106 107 107 107 107 107 107 108 108 108 
109 109 109 118 118 118 117 117 117 169 169 169 228 228 228 212 212 212 
212 212 212 212 212 212 211 211 211 211 211 211 211 211 211 204 204 204 
90 90 90 91 91 91 93 93 93 94 94 94 95 95 95 97 97 97 98 98 98 99 99 99 
100 100 100 101 101 101 102 102 102 103 103 103 104 104 104 105 105 105 
106 106 106 106 106 106 107 107 107 108 108 108 109 109 109 117 117 117 
117 117 117 169 169 169 228 228 228 212 212 212 212 212 212 212 212 212 
212 212 212 211 211 211 211 211 211 211 211 211 90 90 90 91 91 91 93 93 93 
94 94 94 95 95 95 96 96 96 98 98 98 99 99 99 100 100 100 101 101 101 102 102 102 
103 103 103 104 104 104 105 105 105 105 105 105 106 106 106 107 107 107 
108 108 108 109 109 109 117 117 117 117 117 117 169 169 169 229 229 229 
213 213 213 212 212 212 212 212 212 212 212 212 212 212 212 211 211 211 
211 211 211 90 90 90 91 91 91 93 93 93 94 94 94 95 95 95 96 96 96 98 98 98 
99 99 99 100 100 100 101 101 101 102 102 102 103 103 103 104 104 104 104 104 104 
105 105 105 106 106 106 107 107 107 108 108 108 109 109 109 117 117 117 
116 116 116 169 169 169 229 229 229 213 213 213 213 213 213 212 212 212 
212 212 212 212 212 212 212 212 212 212 212 212 90 90 90 91 91 91 92 92 92 
94 94 94 95 95 95 96 96 96 97 97 97 99 99 99 100 100 100 101 101 101 102 102 102 
103 103 103 103 103 103 104 104 104 105 105 105 106 106 106 107 107 107 
108 108 108 108 108 108 116 116 116 116 116 116 169 169 169 229 229 229 
213 213 213 213 213 213 213 213 213 212 212 212 212 212 212 212 212 212 
212 212 212 203 203 203 91 91 91 92 92 92 94 94 94 95 95 95 96 96 96 97 97 97 
98 98 98 100 100 100 101 101 101 102 102 102 102 102 102 103 103 103 104 104 104 
105 105 105 106 106 106 107 107 107 108 108 108 108 108 108 116 116 116 
116 116 116 169 169 169 229 229 229 213 213 213 213 213 213 213 213 213 
213 213 213 212 212 212 212 212 212 212 212 212 212 212 212 91 91 91 92 92 92 
93 93 93 95 95 95 96 96 96 97 97 97 98 98 98 100 100 100 101 101 101 101 101 101 
102 102 102 103 103 103 104 104 104 105 105 105 106 106 106 107 107 107 
107 107 107 108 108 108 116 116 116 116 116 116 168 168 168 230 230 230 
213 213 213 213 213 213 213 213 213 213 213 213 213 213 213 212 212 212 
212 212 212 212 212 212 91 91 91 92 92 92 93 93 93 95 95 95 96 96 96 97 97 97 
98 98 98 99 99 99 100 100 100 101 101 101 102 102 102 103 103 103 104 104 104 
105 105 105 106 106 106 106 106 106 107 107 107 108 108 108 116 116 116 
115 115 115 168 168 168 230 230 230 214 214 214 213 213 213 213 213 213 
213 213 213 213 213 213 213 213 213 212 212 212 212 212 212 91 91 91 92 92 92 
93 93 93 94 94 94 96 96 96 97 97 97 98 98 98 99 99 99 100 100 100 101 101 101 
102 102 102 103 103 103 104 104 104 105 105 105 105 105 105 106 106 106 
107 107 107 108 108 108 115 115 115 115 115 115 168 168 168 230 230 230 
214 214 214 214 214 214 213 213 213 213 213 213 213 213 213 213 213 213 
213 213 213 212 212 212 206 206 206 92 92 92 93 93 93 94 94 94 95 95 95 
97 97 97 98 98 98 99 99 99 100 100 100 101 101 101 102 102 102 103 103 103 
104 104 104 104 104 104 105 105 105 106 106 106 107 107 107 108 108 108 
115 115 115 115 115 115 168 168 168 230 230 230 214 214 214 214 214 214 
214 214 214 213 213 213 213 213 213 213 213 213 213 213 213 213 213 213 
212 212 212 92 92 92 93 93 93 94 94 94 95 95 95 97 97 97 98 98 98 99 99 99 
100 100 100 101 101 101 102 102 102 103 103 103 103 103 103 104 104 104 
105 105 105 106 106 106 107 107 107 108 108 108 115 115 115 114 114 114 
168 168 168 230 230 230 214 214 214 214 214 214 214 214 214 214 214 214 
213 213 213 213 213 213 213 213 213 213 213 213 213 213 213 91 91 91 93 93 93 
94 94 94 95 95 95 96 96 96 98 98 98 99 99 99 100 100 100 101 101 101 102 102 102 
102 102 102 103 103 103 104 104 104 105 105 105 106 106 106 107 107 107 
107 107 107 114 114 114 114 114 114 168 168 168 230 230 230 214 214 214 
214 214 214 214 214 214 214 214 214 214 214 214 213 213 213 213 213 213 
213 213 213 213 213 213 91 91 91 93 93 93 94 94 94 95 95 95 96 96 96 97 97 97 
99 99 99 100 100 100 101 101 101 102 102 102 102 102 102 103 103 103 104 104 104 
105 105 105 106 106 106 107 107 107 107 107 107 114 114 114 114 114 114 
167 167 167 230 230 230 215 215 215 214 214 214 214 214 214 214 214 214 
214 214 214 214 214 214 214 214 214 213 213 213 213 213 213 204 204 204 
92 92 92 94 94 94 95 95 95 96 96 96 97 97 97 98 98 98 100 100 100 101 101 101 
101 101 101 102 102 102 103 103 103 104 104 104 105 105 105 106 106 106 
106 106 106 107 107 107 114 114 114 113 113 113 167 167 167 230 230 230 
215 215 215 215 215 215 214 214 214 214 214 214 214 214 214 214 214 214 
214 214 214 214 214 214 213 213 213 213 213 213 92 92 92 94 94 94 95 95 95 
96 96 96 97 97 97 98 98 98 99 99 99 100 100 100 101 101 101 102 102 102 
103 103 103 104 104 104 105 105 105 105 105 105 106 106 106 107 107 107 
113 113 113 113 113 113 167 167 167 230 230 230 215 215 215 215 215 215 
215 215 215 215 215 215 214 214 214 214 214 214 214 214 214 214 214 214 
214 214 214 213 213 213 92 92 92 93 93 93 95 95 95 96 96 96 97 97 97 98 98 98 
99 99 99 100 100 100 101 101 101 102 102 102 103 103 103 104 104 104 104 104 104 
105 105 105 106 106 106 107 107 107 113 113 113 113 113 113 167 167 167 
230 230 230 215 215 215 215 215 215 215 215 215 215 215 215 215 215 215 
214 214 214 214 214 214 214 214 214 214 214 214 214 214 214 92 92 92 93 93 93 
94 94 94 96 96 96 97 97 97 98 98 98 99 99 99 100 100 100 101 101 101 102 102 102 
103 103 103 104 104 104 104 104 104 105 105 105 106 106 106 107 107 107 
113 113 113 113 113 113 166 166 166 231 231 231 215 215 215 215 215 215 
215 215 215 215 215 215 215 215 215 215 215 215 214 214 214 214 214 214 
214 214 214 214 214 214 206 206 206 93 93 93 94 94 94 96 96 96 97 97 97 
98 98 98 99 99 99 100 100 100 101 101 101 102 102 102 103 103 103 103 103 103 
104 104 104 105 105 105 106 106 106 107 107 107 113 113 113 112 112 112 
166 166 166 231 231 231 216 216 216 215 215 215 215 215 215 215 215 215 
215 215 215 215 215 215 215 215 215 214 214 214 214 214 214 214 214 214 
214 214 214 93 93 93 94 94 94 95 95 95 97 97 97 98 98 98 99 99 99 100 100 100 
101 101 101 102 102 102 102 102 102 103 103 103 104 104 104 105 105 105 
106 106 106 106 106 106 112 112 112 112 112 112 166 166 166 231 231 231 
216 216 216 216 216 216 215 215 215 215 215 215 215 215 215 215 215 215 
215 215 215 215 215 215 214 214 214 214 214 214 214 214 214 93 93 93 94 94 94 
95 95 95 96 96 96 98 98 98 99 99 99 100 100 100 101 101 101 102 102 102 
102 102 102 103 103 103 104 104 104 105 105 105 106 106 106 106 106 106 
112 112 112 112 112 112 166 166 166 231 231 231 216 216 216 216 216 216 
216 216 216 215 215 215 215 215 215 215 215 215 215 215 215 215 215 215 
215 215 215 214 214 214 214 214 214 93 93 93 94 94 94 95 95 95 96 96 96 
97 97 97 99 99 99 100 100 100 101 101 101 101 101 101 102 102 102 103 103 103 
104 104 104 105 105 105 105 105 105 106 106 106 112 112 112 111 111 111 
166 166 166 231 231 231 216 216 216 216 216 216 216 216 216 216 216 216 
215 215 215 215 215 215 215 215 215 215 215 215 215 215 215 215 215 215 
214 214 214 206 206 206 94 94 94 95 95 95 96 96 96 97 97 97 98 98 98 100 100 100 
100 100 100 101 101 101 102 102 102 103 103 103 104 104 104 104 104 104 
105 105 105 106 106 106 111 111 111 111 111 111 166 166 166 231 231 231 
216 216 216 216 216 216 216 216 216 216 216 216 216 216 216 215 215 215 
215 215 215 215 215 215 215 215 215 215 215 215 215 215 215 214 214 214 
94 94 94 95 95 95 96 96 96 97 97 97 98 98 98 99 99 99 100 100 100 101 101 101 
102 102 102 103 103 103 104 104 104 104 104 104 105 105 105 106 106 106 
111 111 111 111 111 111 166 166 166 231 231 231 217 217 217 216 216 216 
216 216 216 216 216 216 216 216 216 216 216 216 215 215 215 215 215 215 
215 215 215 215 215 215 215 215 215 215 215 215 94 94 94 95 95 95 96 96 96 
97 97 97 98 98 98 99 99 99 100 100 100 101 101 101 102 102 102 103 103 103 
103 103 103 104 104 104 105 105 105 106 106 106 111 111 111 111 111 111 
165 165 165 231 231 231 217 217 217 217 217 217 216 216 216 216 216 216 
216 216 216 216 216 216 216 216 216 215 215 215 215 215 215 215 215 215 
215 215 215 215 215 215 93 93 93 95 95 95 96 96 96 97 97 97 98 98 98 99 99 99 
100 100 100 101 101 101 102 102 102 103 103 103 103 103 103 104 104 104 
105 105 105 106 106 106 111 111 111 110 110 110 165 165 165 231 231 231 
217 217 217 217 217 217 217 217 217 216 216 216 216 216 216 216 216 216 
216 216 216 216 216 216 215 215 215 215 215 215 215 215 215 215 215 215 
207 207 207 94 94 94 96 96 96 97 97 97 98 98 98 99 99 99 100 100 100 101 101 101 
102 102 102 102 102 102 103 103 103 104 104 104 105 105 105 106 106 106 
110 110 110 110 110 110 165 165 165 231 231 231 217 217 217 217 217 217 
217 217 217 217 217 217 216 216 216 216 216 216 216 216 216 216 216 216 
216 216 216 215 215 215 215 215 215 215 215 215 215 215 215 94 94 94 95 95 95 
97 97 97 98 98 98 99 99 99 100 100 100 101 101 101 102 102 102 102 102 102 
103 103 103 104 104 104 105 105 105 105 105 105 110 110 110 110 110 110 
165 165 165 231 231 231 217 217 217 217 217 217 217 217 217 217 217 217 
217 217 217 216 216 216 216 216 216 216 216 216 216 216 216 216 216 216 
215 215 215 215 215 215 215 215 215 94 94 94 95 95 95 96 96 96 98 98 98 
99 99 99 100 100 100 101 101 101 101 101 101 102 102 102 103 103 103 104 104 104 
104 104 104 105 105 105 110 110 110 109 109 109 165 165 165 232 232 232 
217 217 217 217 217 217 217 217 217 217 217 217 217 217 217 217 217 217 
216 216 216 216 216 216 216 216 216 216 216 216 216 216 216 215 215 215 
215 215 215 94 94 94 95 95 95 96 96 96 97 97 97 98 98 98 100 100 100 101 101 101 
101 101 101 102 102 102 103 103 103 104 104 104 104 104 104 105 105 105 
109 109 109 109 109 109 165 165 165 232 232 232 218 218 218 217 217 217 
217 217 217 217 217 217 217 217 217 217 217 217 217 217 217 216 216 216 
216 216 216 216 216 216 216 216 216 216 216 216 215 215 215 206 206 206 
95 95 95 96 96 96 97 97 97 98 98 98 99 99 99 100 100 100 101 101 101 102 102 102 
103 103 103 103 103 103 104 104 104 105 105 105 109 109 109 109 109 109 
165 165 165 232 232 232 218 218 218 218 218 218 217 217 217 217 217 217 
217 217 217 217 217 217 217 217 217 216 216 216 216 216 216 216 216 216 
216 216 216 216 216 216 216 216 216 215 215 215 95 95 95 96 96 96 97 97 97 
98 98 98 99 99 99 100 100 100 101 101 101 102 102 102 103 103 103 103 103 103 
104 104 104 105 105 105 109 109 109 109 109 109 164 164 164 232 232 232 
218 218 218 218 218 218 218 218 218 217 217 217 217 217 217 217 217 217 
217 217 217 217 217 217 216 216 216 216 216 216 216 216 216 216 216 216 
216 216 216 216 216 216 95 95 95 96 96 96 97 97 97 98 98 98 99 99 99 100 100 100 
101 101 101 102 102 102 102 102 102 103 103 103 104 104 104 105 105 105 
109 109 109 108 108 108 164 164 164 232 232 232 218 218 218 218 218 218 
218 218 218 218 218 218 217 217 217 217 217 217 217 217 217 217 217 217 
217 217 217 216 216 216 216 216 216 216 216 216 216 216 216 216 216 216 
95 95 95 96 96 96 97 97 97 98 98 98 99 99 99 100 100 100 101 101 101 102 102 102 
102 102 102 103 103 103 104 104 104 105 105 105 108 108 108 108 108 108 
164 164 164 232 232 232 218 218 218 218 218 218 218 218 218 218 218 218 
218 218 218 217 217 217 217 217 217 217 217 217 217 217 217 217 217 217 
216 216 216 216 216 216 216 216 216 216 216 216 205 205 205 96 96 96 97 97 97 
98 98 98 99 99 99 100 100 100 101 101 101 101 101 101 102 102 102 103 103 103 
104 104 104 104 104 104 108 108 108 108 108 108 163 163 163 233 233 233 
218 218 218 218 218 218 218 218 218 218 218 218 218 218 218 218 218 218 
217 217 217 217 217 217 217 217 217 217 217 217 217 217 217 216 216 216 
216 216 216 216 216 216 216 216 216 95 95 95 97 97 97 98 98 98 99 99 99 
100 100 100 101 101 101 101 101 101 102 102 102 103 103 103 104 104 104 
104 104 104 108 108 108 107 107 107 163 163 163 233 233 233 219 219 219 
218 218 218 218 218 218 218 218 218 218 218 218 218 218 218 217 217 217 
217 217 217 217 217 217 217 217 217 217 217 217 217 217 217 216 216 216 
216 216 216 216 216 216 95 95 95 96 96 96 97 97 97 99 99 99 100 100 100 
100 100 100 101 101 101 102 102 102 103 103 103 103 103 103 104 104 104 
107 107 107 107 107 107 163 163 163 233 233 233 219 219 219 219 219 219 
218 218 218 218 218 218 218 218 218 218 218 218 218 218 218 217 217 217 
217 217 217 217 217 217 217 217 217 217 217 217 217 217 217 216 216 216 
216 216 216 95 95 95 96 96 96 97 97 97 98 98 98 99 99 99 100 100 100 101 101 101 
102 102 102 103 103 103 103 103 103 104 104 104 107 107 107 107 107 107 
163 163 163 233 233 233 219 219 219 219 219 219 219 219 219 218 218 218 
218 218 218 218 218 218 218 218 218 218 218 218 217 217 217 217 217 217 
217 217 217 217 217 217 217 217 217 217 217 217 216 216 216 204 204 204 
96 96 96 97 97 97 98 98 98 99 99 99 100 100 100 101 101 101 102 102 102 
103 103 103 103 103 103 104 104 104 107 107 107 107 107 107 163 163 163 
233 233 233 219 219 219 219 219 219 219 219 219 218 218 218 218 218 218 
218 218 218 218 218 218 218 218 218 218 218 218 217 217 217 217 217 217 
217 217 217 217 217 217 217 217 217 217 217 217 216 216 216 96 96 96 97 97 97 
98 98 98 99 99 99 100 100 100 101 101 101 102 102 102 102 102 102 103 103 103 
104 104 104 107 107 107 106 106 106 163 163 163 233 233 233 219 219 219 
219 219 219 219 219 219 219 219 219 218 218 218 218 218 218 218 218 218 
218 218 218 218 218 218 218 218 218 217 217 217 217 217 217 217 217 217 
217 217 217 217 217 217 216 216 216 96 96 96 97 97 97 98 98 98 99 99 99 
100 100 100 101 101 101 102 102 102 102 102 102 103 103 103 104 104 104 
106 106 106 106 106 106 163 163 163 233 233 233 219 219 219 219 219 219 
219 219 219 219 219 219 219 219 219 218 218 218 218 218 218 218 218 218 
218 218 218 218 218 218 218 218 218 217 217 217 217 217 217 217 217 217 
217 217 217 217 217 217 96 96 96 97 97 97 98 98 98 99 99 99 100 100 100 
101 101 101 101 101 101 102 102 102 103 103 103 104 104 104 106 106 106 
106 106 106 162 162 162 233 233 233 219 219 219 219 219 219 219 219 219 
219 219 219 219 219 219 219 219 219 218 218 218 218 218 218 218 218 218 
218 218 218 218 218 218 218 218 218 217 217 217 217 217 217 217 217 217 
217 217 217 206 206 206 97 97 97 98 98 98 99 99 99 100 100 100 101 101 101 
101 101 101 102 102 102 103 103 103 103 103 103 106 106 106 105 105 105 
162 162 162 233 233 233 220 220 220 219 219 219 219 219 219 219 219 219 
219 219 219 219 219 219 219 219 219 218 218 218 218 218 218 218 218 218 
218 218 218 218 218 218 217 217 217 217 217 217 217 217 217 217 217 217 
217 217 217 96 96 96 98 98 98 99 99 99 100 100 100 100 100 100 101 101 101 
102 102 102 103 103 103 103 103 103 105 105 105 105 105 105 162 162 162 
233 233 233 220 220 220 220 220 220 219 219 219 219 219 219 219 219 219 
219 219 219 219 219 219 219 219 219 218 218 218 218 218 218 218 218 218 
218 218 218 218 218 218 217 217 217 217 217 217 217 217 217 217 217 217 
96 96 96 97 97 97 98 98 98 99 99 99 100 100 100 101 101 101 102 102 102 
103 103 103 103 103 103 105 105 105 105 105 105 162 162 162 233 233 233 
220 220 220 220 220 220 220 220 220 219 219 219 219 219 219 219 219 219 
219 219 219 219 219 219 218 218 218 218 218 218 218 218 218 218 218 218 
218 218 218 218 218 218 217 217 217 217 217 217 217 217 217 96 96 96 97 97 97 
98 98 98 99 99 99 100 100 100 101 101 101 102 102 102 102 102 102 103 103 103 
105 105 105 105 105 105 161 161 161 233 233 233 220 220 220 220 220 220 
220 220 220 219 219 219 219 219 219 219 219 219 219 219 219 219 219 219 
219 219 219 218 218 218 218 218 218 218 218 218 218 218 218 218 218 218 
218 218 218 217 217 217 217 217 217 206 206 206 97 97 97 98 98 98 99 99 99 
100 100 100 101 101 101 102 102 102 102 102 102 103 103 103 105 105 105 
104 104 104 161 161 161 233 233 233 220 220 220 220 220 220 220 220 220 
220 220 220 219 219 219 219 219 219 219 219 219 219 219 219 219 219 219 
219 219 219 218 218 218 218 218 218 218 218 218 218 218 218 218 218 218 
218 218 218 217 217 217 217 217 217 97 97 97 98 98 98 99 99 99 100 100 100 
101 101 101 101 101 101 102 102 102 103 103 103 104 104 104 104 104 104 
161 161 161 233 233 233 220 220 220 220 220 220 220 220 220 220 220 220 
220 220 220 219 219 219 219 219 219 219 219 219 219 219 219 219 219 219 
219 219 219 218 218 218 218 218 218 218 218 218 218 218 218 218 218 218 
218 218 218 217 217 217 97 97 97 98 98 98 99 99 99 100 100 100 101 101 101 
101 101 101 102 102 102 103 103 103 104 104 104 104 104 104 161 161 161 
234 234 234 220 220 220 220 220 220 220 220 220 220 220 220 220 220 220 
220 220 220 219 219 219 219 219 219 219 219 219 219 219 219 219 219 219 
219 219 219 218 218 218 218 218 218 218 218 218 218 218 218 218 218 218 
217 217 217 97 97 97 98 98 98 99 99 99 100 100 100 101 101 101 101 101 101 
102 102 102 103 103 103 104 104 104 103 103 103 161 161 161 234 234 234 
221 221 221 220 220 220 220 220 220 220 220 220 220 220 220 220 220 220 
220 220 220 219 219 219 219 219 219 219 219 219 219 219 219 219 219 219 
218 218 218 218 218 218 218 218 218 218 218 218 218 218 218 218 218 218 
206 206 206 98 98 98 99 99 99 100 100 100 100 100 100 101 101 101 102 102 102 
103 103 103 103 103 103 103 103 103 161 161 161 234 234 234 221 221 221 
220 220 220 220 220 220 220 220 220 220 220 220 220 220 220 220 220 220 
219 219 219 219 219 219 219 219 219 219 219 219 219 219 219 219 219 219 
218 218 218 218 218 218 218 218 218 218 218 218 218 218 218 218 218 218 
97 97 97 98 98 98 99 99 99 100 100 100 101 101 101 102 102 102 102 102 102 
103 103 103 103 103 103 161 161 161 234 234 234 221 221 221 221 221 221 
220 220 220 220 220 220 220 220 220 220 220 220 220 220 220 220 220 220 
219 219 219 219 219 219 219 219 219 219 219 219 219 219 219 219 219 219 
218 218 218 218 218 218 218 218 218 218 218 218 218 218 218 97 97 97 98 98 98 
99 99 99 100 100 100 101 101 101 102 102 102 102 102 102 103 103 103 103 103 103 
160 160 160 234 234 234 221 221 221 221 221 221 221 221 221 220 220 220 
220 220 220 220 220 220 220 220 220 220 220 220 220 220 220 219 219 219 
219 219 219 219 219 219 219 219 219 219 219 219 219 219 219 218 218 218 
218 218 218 218 218 218 218 218 218 97 97 97 98 98 98 99 99 99 100 100 100 
101 101 101 102 102 102 102 102 102 103 103 103 102 102 102 160 160 160 
234 234 234 221 221 221 221 221 221 221 221 221 221 221 221 220 220 220 
220 220 220 220 220 220 220 220 220 220 220 220 220 220 220 219 219 219 
219 219 219 219 219 219 219 219 219 219 219 219 219 219 219 218 218 218 
218 218 218 218 218 218 207 207 207 98 98 98 99 99 99 100 100 100 101 101 101 
101 101 101 102 102 102 102 102 102 102 102 102 160 160 160 234 234 234 
221 221 221 221 221 221 221 221 221 221 221 221 220 220 220 220 220 220 
220 220 220 220 220 220 220 220 220 220 220 220 219 219 219 219 219 219 
219 219 219 219 219 219 219 219 219 219 219 219 218 218 218 218 218 218 
218 218 218 218 218 218 98 98 98 99 99 99 100 100 100 101 101 101 101 101 101 
102 102 102 102 102 102 102 102 102 160 160 160 235 235 235 221 221 221 
221 221 221 221 221 221 221 221 221 221 221 221 220 220 220 220 220 220 
220 220 220 220 220 220 220 220 220 220 220 220 219 219 219 219 219 219 
219 219 219 219 219 219 219 219 219 219 219 219 218 218 218 218 218 218 
218 218 218 98 98 98 99 99 99 100 100 100 101 101 101 101 101 101 102 102 102 
102 102 102 102 102 102 160 160 160 235 235 235 221 221 221 221 221 221 
221 221 221 221 221 221 221 221 221 221 221 221 220 220 220 220 220 220 
220 220 220 220 220 220 220 220 220 220 220 220 219 219 219 219 219 219 
219 219 219 219 219 219 219 219 219 219 219 219 218 218 218 218 218 218 
98 98 98 99 99 99 100 100 100 100 100 100 101 101 101 102 102 102 102 102 102 
101 101 101 160 160 160 235 235 235 222 222 222 221 221 221 221 221 221 
221 221 221 221 221 221 221 221 221 221 221 221 220 220 220 220 220 220 
220 220 220 220 220 220 220 220 220 220 220 220 219 219 219 219 219 219 
219 219 219 219 219 219 219 219 219 219 219 219 218 218 218 204 204 204 
98 98 98 99 99 99 100 100 100 101 101 101 102 102 102 101 101 101 101 101 101 
160 160 160 235 235 235 222 222 222 222 222 222 221 221 221 221 221 221 
221 221 221 221 221 221 221 221 221 220 220 220 220 220 220 220 220 220 
220 220 220 220 220 220 220 220 220 219 219 219 219 219 219 219 219 219 
219 219 219 219 219 219 219 219 219 218 218 218 218 218 218 98 98 98 99 99 99 
100 100 100 101 101 101 102 102 102 101 101 101 101 101 101 160 160 160 
235 235 235 222 222 222 222 222 222 222 222 222 221 221 221 221 221 221 
221 221 221 221 221 221 221 221 221 220 220 220 220 220 220 220 220 220 
220 220 220 220 220 220 220 220 220 219 219 219 219 219 219 219 219 219 
219 219 219 219 219 219 219 219 219 218 218 218 98 98 98 99 99 99 100 100 100 
101 101 101 101 101 101 101 101 101 101 101 101 159 159 159 235 235 235 
222 222 222 222 222 222 222 222 222 221 221 221 221 221 221 221 221 221 
221 221 221 221 221 221 221 221 221 220 220 220 220 220 220 220 220 220 
220 220 220 220 220 220 220 220 220 219 219 219 219 219 219 219 219 219 
219 219 219 219 219 219 219 219 219 98 98 98 99 99 99 100 100 100 101 101 101 
101 101 101 101 101 101 100 100 100 159 159 159 235 235 235 222 222 222 
222 222 222 222 222 222 222 222 222 221 221 221 221 221 221 221 221 221 
221 221 221 221 221 221 221 221 221 220 220 220 220 220 220 220 220 220 
220 220 220 220 220 220 220 220 220 219 219 219 219 219 219 219 219 219 
219 219 219 219 219 219 207 207 207 99 99 99 100 100 100 101 101 101 101 101 101 
100 100 100 100 100 100 159 159 159 235 235 235 222 222 222 222 222 222 
222 222 222 222 222 222 222 222 222 221 221 221 221 221 221 221 221 221 
221 221 221 221 221 221 220 220 220 220 220 220 220 220 220 220 220 220 
220 220 220 220 220 220 219 219 219 219 219 219 219 219 219 219 219 219 
219 219 219 219 219 219 99 99 99 100 100 100 100 100 100 101 101 101 100 100 100 
100 100 100 159 159 159 235 235 235 223 223 223 222 222 222 222 222 222 
222 222 222 222 222 222 222 222 222 221 221 221 221 221 221 221 221 221 
221 221 221 221 221 221 220 220 220 220 220 220 220 220 220 220 220 220 
220 220 220 220 220 220 219 219 219 219 219 219 219 219 219 219 219 219 
219 219 219 99 99 99 100 100 100 100 100 100 101 101 101 100 100 100 99 99 99 
158 158 158 235 235 235 223 223 223 223 223 223 222 222 222 222 222 222 
222 222 222 222 222 222 222 222 222 221 221 221 221 221 221 221 221 221 
221 221 221 221 221 221 220 220 220 220 220 220 220 220 220 220 220 220 
220 220 220 220 220 220 219 219 219 219 219 219 219 219 219 219 219 219 
98 98 98 99 99 99 100 100 100 101 101 101 99 99 99 99 99 99 158 158 158 
235 235 235 223 223 223 223 223 223 222 222 222 222 222 222 222 222 222 
222 222 222 222 222 222 221 221 221 221 221 221 221 221 221 221 221 221 
221 221 221 220 220 220 220 220 220 220 220 220 220 220 220 220 220 220 
220 220 220 220 220 220 219 219 219 219 219 219 219 219 219 206 206 206 
99 99 99 100 100 100 101 101 101 99 99 99 99 99 99 158 158 158 235 235 235 
223 223 223 223 223 223 223 223 223 222 222 222 222 222 222 222 222 222 
222 222 222 222 222 222 221 221 221 221 221 221 221 221 221 221 221 221 
221 221 221 220 220 220 220 220 220 220 220 220 220 220 220 220 220 220 
220 220 220 219 219 219 219 219 219 219 219 219 219 219 219 99 99 99 100 100 100 
101 101 101 99 99 99 99 99 99 158 158 158 235 235 235 223 223 223 223 223 223 
223 223 223 223 223 223 222 222 222 222 222 222 222 222 222 222 222 222 
222 222 222 221 221 221 221 221 221 221 221 221 221 221 221 221 221 221 
220 220 220 220 220 220 220 220 220 220 220 220 220 220 220 220 220 220 
219 219 219 219 219 219 219 219 219 99 99 99 100 100 100 101 101 101 99 99 99 
98 98 98 158 158 158 235 235 235 223 223 223 223 223 223 223 223 223 223 223 223 
223 223 223 222 222 222 222 222 222 222 222 222 222 222 222 222 222 222 
221 221 221 221 221 221 221 221 221 221 221 221 221 221 221 220 220 220 
220 220 220 220 220 220 220 220 220 220 220 220 220 220 220 219 219 219 
219 219 219 99 99 99 100 100 100 101 101 101 98 98 98 98 98 98 158 158 158 
236 236 236 223 223 223 223 223 223 223 223 223 223 223 223 223 223 223 
222 222 222 222 222 222 222 222 222 222 222 222 222 222 222 221 221 221 
221 221 221 221 221 221 221 221 221 221 221 221 220 220 220 220 220 220 
220 220 220 220 220 220 220 220 220 220 220 220 219 219 219 219 219 219 
208 208 208 100 100 100 100 100 100 98 98 98 98 98 98 158 158 158 236 236 236 
224 224 224 223 223 223 223 223 223 223 223 223 223 223 223 223 223 223 
222 222 222 222 222 222 222 222 222 222 222 222 222 222 222 221 221 221 
221 221 221 221 221 221 221 221 221 221 221 221 220 220 220 220 220 220 
220 220 220 220 220 220 220 220 220 220 220 220 219 219 219 219 219 219 
100 100 100 100 100 100 98 98 98 98 98 98 157 157 157 236 236 236 224 224 224 
223 223 223 223 223 223 223 223 223 223 223 223 223 223 223 223 223 223 
222 222 222 222 222 222 222 222 222 222 222 222 222 222 222 221 221 221 
221 221 221 221 221 221 221 221 221 221 221 221 220 220 220 220 220 220 
220 220 220 220 220 220 220 220 220 220 220 220 219 219 219 99 99 99 100 100 100 
98 98 98 97 97 97 157 157 157 236 236 236 224 224 224 224 224 224 223 223 223 
223 223 223 223 223 223 223 223 223 223 223 223 222 222 222 222 222 222 
222 222 222 222 222 222 222 222 222 222 222 222 221 221 221 221 221 221 
221 221 221 221 221 221 220 220 220 220 220 220 220 220 220 220 220 220 
220 220 220 220 220 220 220 220 220 99 99 99 100 100 100 97 97 97 97 97 97 
157 157 157 236 236 236 224 224 224 224 224 224 224 224 224 223 223 223 
223 223 223 223 223 223 223 223 223 223 223 223 222 222 222 222 222 222 
222 222 222 222 222 222 222 222 222 221 221 221 221 221 221 221 221 221 
221 221 221 221 221 221 220 220 220 220 220 220 220 220 220 220 220 220 
220 220 220 220 220 220 207 207 207 100 100 100 97 97 97 97 97 97 157 157 157 
236 236 236 224 224 224 224 224 224 224 224 224 224 224 224 223 223 223 
223 223 223 223 223 223 223 223 223 223 223 223 222 222 222 222 222 222 
222 222 222 222 222 222 222 222 222 221 221 221 221 221 221 221 221 221 
221 221 221 221 221 221 220 220 220 220 220 220 220 220 220 220 220 220 
220 220 220 220 220 220 100 100 100 97 97 97 97 97 97 156 156 156 236 236 236 
224 224 224 224 224 224 224 224 224 224 224 224 223 223 223 223 223 223 
223 223 223 223 223 223 223 223 223 223 223 223 222 222 222 222 222 222 
222 222 222 222 222 222 222 222 222 221 221 221 221 221 221 221 221 221 
221 221 221 221 221 221 220 220 220 220 220 220 220 220 220 220 220 220 
220 220 220 100 100 100 97 97 97 96 96 96 156 156 156 236 236 236 224 224 224 
224 224 224 224 224 224 224 224 224 224 224 224 223 223 223 223 223 223 
223 223 223 223 223 223 223 223 223 222 222 222 222 222 222 222 222 222 
222 222 222 222 222 222 221 221 221 221 221 221 221 221 221 221 221 221 
221 221 221 220 220 220 220 220 220 220 220 220 220 220 220 220 220 220 
100 100 100 96 96 96 96 96 96 156 156 156 236 236 236 224 224 224 224 224 224 
224 224 224 224 224 224 224 224 224 224 224 224 223 223 223 223 223 223 
223 223 223 223 223 223 223 223 223 222 222 222 222 222 222 222 222 222 
222 222 222 222 222 222 221 221 221 221 221 221 221 221 221 221 221 221 
221 221 221 220 220 220 220 220 220 220 220 220 220 220 220 207 207 207 
96 96 96 96 96 96 156 156 156 236 236 236 225 225 225 224 224 224 224 224 224 
224 224 224 224 224 224 224 224 224 223 223 223 223 223 223 223 223 223 
223 223 223 223 223 223 223 223 223 222 222 222 222 222 222 222 222 222 
222 222 222 222 222 222 221 221 221 221 221 221 221 221 221 221 221 221 
221 221 221 220 220 220 220 220 220 220 220 220 220 220 220 96 96 96 96 96 96 
156 156 156 236 236 236 225 225 225 225 225 225 224 224 224 224 224 224 
224 224 224 224 224 224 224 224 224 223 223 223 223 223 223 223 223 223 
223 223 223 223 223 223 222 222 222 222 222 222 222 222 222 222 222 222 
222 222 222 222 222 222 221 221 221 221 221 221 221 221 221 221 221 221 
221 221 221 220 220 220 220 220 220 220 220 220 96 96 96 95 95 95 156 156 156 
236 236 236 225 225 225 225 225 225 224 224 224 224 224 224 224 224 224 
224 224 224 224 224 224 224 224 224 223 223 223 223 223 223 223 223 223 
223 223 223 223 223 223 222 222 222 222 222 222 222 222 222 222 222 222 
222 222 222 221 221 221 221 221 221 221 221 221 221 221 221 221 221 221 
220 220 220 220 220 220 220 220 220 95 95 95 95 95 95 156 156 156 236 236 236 
225 225 225 225 225 225 225 225 225 224 224 224 224 224 224 224 224 224 
224 224 224 224 224 224 223 223 223 223 223 223 223 223 223 223 223 223 
223 223 223 223 223 223 222 222 222 222 222 222 222 222 222 222 222 222 
222 222 222 221 221 221 221 221 221 221 221 221 221 221 221 221 221 221 
220 220 220 220 220 220 216 216 216 195 195 195 218 218 218 236 236 236 
225 225 225 225 225 225 225 225 225 225 225 225 224 224 224 224 224 224 
224 224 224 224 224 224 224 224 224 223 223 223 223 223 223 223 223 223 
223 223 223 223 223 223 223 223 223 222 222 222 222 222 222 222 222 222 
222 222 222 222 222 222 221 221 221 221 221 221 221 221 221 221 221 221 
221 221 221 220 220 220 220 220 220 220 220 220 233 233 233 248 248 248 
244 244 244 244 244 244 244 244 244 244 244 244 243 243 243 243 243 243 
243 243 243 243 243 243 243 243 243 243 243 243 243 243 243 243 243 243 
243 243 243 243 243 243 243 243 243 242 242 242 242 242 242 242 242 242 
242 242 242 242 242 242 242 242 242 242 242 242 242 242 242 242 242 242 
242 242 242 242 242 242 242 242 242 242 242 242 247 247 247 
